<?xml version="1.0" encoding="UTF-8"?>
<svg id="_Слой_2" data-name=" Слой 2" xmlns="http://www.w3.org/2000/svg" viewBox="0 0 152.62 152.63">
  <defs>
    <style>
      .cls-1 {
        fill: #999;
        stroke: #000;
        stroke-miterlimit: 10;
        stroke-width: 1.03px;
      }
    </style>
  </defs>
  <path class="cls-1" d="M141.78,152.12h-9.26c-.78,0-1.51-.42-1.9-1.09l-9.99-17.3,8.63-8.13,13.91,24.1c.62,1.08-.16,2.42-1.4,2.42h0Z"/>
  <path class="cls-1" d="M10.79,152.12h9.26c.78,0,1.51-.42,1.9-1.09l10.29-17.82-8.85-7.75-13.99,24.24c-.62,1.08.16,2.42,1.4,2.42h0Z"/>
  <path class="cls-1" d="M76.32.51C34.45.51.51,34.46.51,76.31s33.93,75.8,75.8,75.8,75.79-33.94,75.79-75.8S118.18.51,76.31.51h0ZM76.32,146.95c-39.01,0-70.63-31.62-70.63-70.63S37.31,5.69,76.32,5.69s70.63,31.62,70.63,70.63-31.63,70.63-70.63,70.63h0Z"/>
</svg>